<svg width="48" height="41" viewBox="0 0 48 41" fill="none" xmlns="http://www.w3.org/2000/svg">
<path d="M16.8439 5.59981L9.87515 9.59054H8.46091C7.68205 9.59054 6.97152 9.61879 6.87587 9.66117C6.58892 9.77419 6.16533 10.2192 6.04919 10.537C5.95354 10.7913 5.93988 11.0668 5.96037 12.1121C5.98087 13.3623 5.98087 13.3835 6.17217 13.6731C6.27465 13.8355 6.48644 14.0545 6.64358 14.1605L6.92369 14.3582L9.36958 14.3794L11.8086 14.4006L11.8496 15.1211C11.8701 15.5166 11.9111 17.9252 11.9316 20.4679C11.9726 24.7271 11.9179 27.9196 11.7813 29.629L11.7335 30.1304L11.1391 30.1587C10.3671 30.1869 9.97763 30.413 9.69069 30.9851C9.49939 31.3594 9.49939 31.3806 9.49939 32.6167V33.874L8.32427 33.9022C7.03301 33.9305 6.82805 33.987 6.39762 34.4249C6.01503 34.8204 5.98087 34.9617 5.96037 36.2119C5.93988 37.1654 5.95354 37.4197 6.04919 37.681C6.21316 38.119 6.46595 38.4015 6.86904 38.5922L7.21064 38.7617H23.9151H40.6195L40.9611 38.5922C41.371 38.3944 41.5555 38.1967 41.74 37.7729C41.8629 37.4974 41.8834 37.3067 41.8834 36.3955C41.8834 35.8093 41.8561 35.2301 41.8151 35.0959C41.7058 34.7004 41.4189 34.3472 41.0431 34.1282C40.6947 33.9305 40.6605 33.9234 39.5127 33.9022L38.3308 33.874V32.6167C38.3308 31.3806 38.3308 31.3594 38.1395 30.9851C37.8662 30.4412 37.4563 30.1869 36.7867 30.1587L36.288 30.1304L36.2538 29.7632C36.1923 29.2052 36.083 26.1185 36.042 23.5758C36.001 21.478 36.0762 17.0069 36.1855 15.1564L36.2333 14.4006L38.5699 14.3794L40.9065 14.3582L41.1866 14.1605C41.3437 14.0545 41.5555 13.8355 41.658 13.6731C41.8493 13.3835 41.8493 13.3623 41.8698 12.1121C41.8903 11.0668 41.8766 10.7913 41.781 10.537C41.6648 10.2192 41.2412 9.77419 40.9543 9.66117C40.8586 9.61879 40.1686 9.59054 39.4171 9.59054H38.0506L31.1093 5.621C27.2901 3.43846 24.0859 1.6444 23.9902 1.63027C23.8604 1.61614 21.9133 2.69682 16.8439 5.59981ZM29.8931 6.12955C33.1589 8.00131 35.8439 9.5411 35.8644 9.55522C35.878 9.57641 30.5354 9.59054 23.9834 9.59054C16.5979 9.59054 12.0956 9.56229 12.1366 9.52697C12.1776 9.47753 23.9082 2.74626 23.9561 2.7392C23.9561 2.7392 26.6274 4.26486 29.8931 6.12955ZM40.7356 10.7701C40.845 10.869 40.8586 11.0103 40.8586 11.9709C40.8586 12.9597 40.845 13.0657 40.722 13.1928C40.5853 13.3341 40.4965 13.3341 23.9151 13.3341C7.33362 13.3341 7.2448 13.3341 7.10816 13.1928C6.98518 13.0657 6.97152 12.9597 6.97152 11.9779C6.97152 11.0809 6.99202 10.8902 7.08766 10.7772C7.19015 10.6571 7.80503 10.65 23.9014 10.65C39.3487 10.65 40.6195 10.6571 40.7356 10.7701ZM15.0744 15.1493C15.0539 15.5731 15.0129 17.9605 14.9924 20.4679C14.9514 24.6635 15.006 27.955 15.1495 29.629L15.1905 30.1446H13.9744H12.7583L12.7993 29.6007C12.9428 27.7784 12.9974 24.5929 12.9564 20.5032C12.9359 18.0523 12.8949 15.6791 12.8744 15.2199L12.8266 14.3935H13.9744H15.1154L15.0744 15.1493ZM18.5451 15.3612C18.5656 15.898 18.6065 17.1976 18.6339 18.2571L18.6749 20.1713L18.4016 20.5174C17.7457 21.3367 17.2538 22.3044 16.9668 23.3356C16.7277 24.1903 16.6662 25.8148 16.8439 26.6906C17.0557 27.7784 17.4588 28.7531 18.0668 29.6501L18.3743 30.1093L17.3085 30.1304C16.7209 30.1375 16.2358 30.1375 16.2222 30.1234C16.1538 30.0527 16.0445 27.3334 16.0035 24.7412C15.9557 21.8029 15.9967 17.3248 16.0923 15.4318L16.147 14.3935H17.3221H18.4972L18.5451 15.3612ZM21.7698 15.6084C21.7425 16.2794 21.7083 17.1341 21.6878 17.5084L21.6468 18.1865L21.0661 18.4549C20.745 18.6032 20.3077 18.8434 20.0891 18.9917L19.6997 19.2531L19.6519 18.0029C19.6314 17.3177 19.5904 16.23 19.563 15.5731L19.522 14.3935H20.6698H21.8108L21.7698 15.6084ZM25.2405 15.785C25.261 16.5549 25.2952 17.3389 25.3156 17.5367L25.3498 17.8898H24.0107H22.6785L22.7126 17.2542C22.7331 16.901 22.7673 16.117 22.7946 15.5025L22.8356 14.3935H24.0176H25.1995L25.2405 15.785ZM28.4721 15.2199C28.4447 15.6791 28.4037 16.795 28.3833 17.6991L28.3354 19.3378L28.192 19.2319C27.864 18.9988 27.133 18.575 26.7709 18.4196L26.3815 18.2571L26.3473 17.8969C26.3268 17.6991 26.2926 16.8304 26.2653 15.9616L26.2243 14.3935H27.3653H28.5131L28.4721 15.2199ZM31.9496 15.9263C32.0452 18.3066 32.0247 26.8248 31.9223 28.5907C31.8744 29.4241 31.8198 30.1163 31.813 30.1304C31.7993 30.1375 31.2801 30.1375 30.6515 30.1304L29.5037 30.1093L29.736 29.7914C30.6788 28.4988 31.1707 26.9661 31.1707 25.3062C31.1707 23.6252 30.6583 22.0572 29.6813 20.7434L29.3602 20.3055L29.4081 18.0382C29.4286 16.795 29.4696 15.4601 29.4969 15.0787L29.5379 14.3935H30.713H31.8949L31.9496 15.9263ZM35.1607 15.2906C34.9625 18.9917 35.0035 26.7471 35.229 29.6643L35.2632 30.1446H34.0539H32.8446L32.8856 29.4524C33.0359 27.1356 33.0837 24.0702 33.0427 20.256C33.0154 17.9817 32.9744 15.7356 32.9471 15.2553L32.8993 14.3935H34.0539H35.2085L35.1607 15.2906ZM25.4113 19.0623C26.033 19.2107 26.9212 19.6133 27.4473 19.9806C27.9255 20.3125 28.6634 21.0683 29.0118 21.5769C30.3031 23.4345 30.5217 25.9349 29.5857 28.0044C29.2373 28.7672 28.8342 29.3535 28.2466 29.9397C27.6591 30.5119 27.2696 30.7873 26.5591 31.1334C23.5735 32.5743 20.0276 31.3312 18.4562 28.3011C16.8575 25.2003 18.0258 21.3014 21.0524 19.6274C22.3779 18.8928 23.8809 18.7021 25.4113 19.0623ZM19.8705 31.4795C21.1344 32.3624 22.4188 32.765 23.9834 32.765C25.5753 32.758 27.01 32.2847 28.192 31.3665L28.4037 31.2041H32.6943H36.9917L37.1488 31.3594C37.2991 31.5078 37.3059 31.5502 37.3059 32.7015V33.8881H23.9151H10.5242V32.7085C10.5242 31.5996 10.531 31.5219 10.6745 31.3665L10.818 31.2041H15.1495H19.4811L19.8705 31.4795ZM40.6605 35.1524L40.8586 35.3572V36.3602C40.8586 37.3208 40.8518 37.3632 40.6878 37.5257L40.5239 37.7022H23.9151H7.30629L7.14232 37.5257C6.97835 37.3632 6.97152 37.3208 6.97152 36.332V35.3149L7.18331 35.1312L7.39511 34.9476H23.9287H40.4624L40.6605 35.1524Z" fill="black"/>
<path d="M22.7876 19.6627C20.089 20.2843 18.258 22.7564 18.4014 25.5817C18.4493 26.5282 18.5654 27.0155 18.9617 27.849C19.5014 29.0003 20.3691 29.8973 21.4895 30.4624C22.4187 30.9286 22.8286 31.0204 23.9491 31.0275C25.0354 31.0275 25.4726 30.9356 26.2993 30.526C27.7819 29.8055 28.8135 28.5624 29.3259 26.8955C29.4626 26.4364 29.4831 26.2174 29.4831 25.3062C29.4831 24.3951 29.4626 24.1761 29.3259 23.717C28.7247 21.7534 27.3241 20.3125 25.4726 19.7545C24.7963 19.5568 23.4572 19.5073 22.7876 19.6627ZM25.4043 20.8423C26.1217 21.1036 26.6068 21.4215 27.1602 21.9865C27.7136 22.5586 28.0893 23.1873 28.3079 23.8936C28.5266 24.607 28.5266 26.0055 28.3079 26.7189C28.0893 27.4252 27.7136 28.0538 27.1602 28.626C26.6136 29.191 26.1285 29.5089 25.4043 29.7773C24.9534 29.9468 24.8167 29.968 23.9491 29.968C23.0814 29.968 22.9448 29.9468 22.4938 29.7773C21.7696 29.5089 21.2846 29.191 20.738 28.626C19.8635 27.7148 19.4741 26.7966 19.4194 25.5181C19.3852 24.5929 19.5014 24.0066 19.8498 23.2579C20.4374 22.0077 21.5715 21.0542 22.8628 20.7151C23.5118 20.5456 24.7758 20.6092 25.4043 20.8423Z" fill="black"/>
<path d="M23.5872 21.6899C23.4915 21.7958 23.4369 21.9441 23.4369 22.0995C23.4369 22.3185 23.4096 22.3609 23.2114 22.4315C22.8903 22.5516 22.4326 22.9754 22.2618 23.3215C22.05 23.7241 22.05 24.4163 22.2549 24.8189C22.4189 25.1297 22.7673 25.4828 23.0953 25.6594C23.2114 25.723 23.5052 25.7936 23.7648 25.8289C24.3387 25.9066 24.5778 26.0196 24.7076 26.2669C24.9058 26.6695 24.7691 27.0438 24.3524 27.2204C23.9629 27.3899 23.6897 27.3475 23.3207 27.0579C22.945 26.7613 22.6785 26.726 22.4667 26.952C22.132 27.2981 22.3711 27.7643 23.0611 28.1457C23.3686 28.3081 23.43 28.3717 23.4642 28.5765C23.512 28.9085 23.6828 29.0851 23.9629 29.0851C24.2567 29.0851 24.4617 28.8732 24.4617 28.5695C24.4617 28.3505 24.4959 28.3152 24.8101 28.1669C25.8691 27.6512 26.1492 26.2739 25.3567 25.4334C25.0288 25.0732 24.6188 24.8825 23.9834 24.7906C23.5462 24.7271 23.4437 24.6847 23.2866 24.494C23.0338 24.2114 23.0406 23.9289 23.2866 23.6393C23.4437 23.4627 23.5462 23.4062 23.8195 23.385C24.1816 23.3497 24.4754 23.4627 24.8784 23.7947C25.2405 24.0914 25.7666 23.7241 25.6505 23.2579C25.5958 23.0248 25.1381 22.6222 24.7555 22.4739C24.4959 22.3679 24.4617 22.3326 24.4617 22.1278C24.4617 21.6051 23.9151 21.3296 23.5872 21.6899Z" fill="black"/>
</svg>
