<svg width="444" height="284" viewBox="0 0 444 284" fill="none" xmlns="http://www.w3.org/2000/svg">
<path d="M66.8455 77.5529C67.5861 69.58 69.6316 61.7828 72.9003 54.4725C73.8113 52.4382 74.814 50.4486 75.9085 48.5038C75.9633 48.4021 75.9765 48.2831 75.9453 48.1718C75.9141 48.0606 75.8408 47.9658 75.741 47.9075C75.6412 47.8492 75.5227 47.8319 75.4104 47.8593C75.2981 47.8867 75.2008 47.9566 75.139 48.0543C71.1591 55.1376 68.3709 62.8267 66.8859 70.8141C66.4728 73.0446 66.1623 75.2909 65.9545 77.5529C65.9016 78.1234 66.7931 78.1198 66.8455 77.5529Z" fill="#E6E6E6"/>
<path d="M78.0668 49.9324C81.1836 49.9324 83.7103 47.4067 83.7103 44.2911C83.7103 41.1755 81.1836 38.6498 78.0668 38.6498C74.95 38.6498 72.4233 41.1755 72.4233 44.2911C72.4233 47.4067 74.95 49.9324 78.0668 49.9324Z" fill="#E6E6E6"/>
<path d="M67.4228 77.7027C67.9033 72.5303 69.2303 67.4719 71.3508 62.7294C71.9418 61.4096 72.5923 60.1189 73.3023 58.8572C73.3379 58.7913 73.3465 58.714 73.3262 58.6419C73.306 58.5697 73.2585 58.5082 73.1937 58.4704C73.129 58.4325 73.052 58.4213 72.9792 58.4391C72.9063 58.4568 72.8432 58.5022 72.8032 58.5656C70.2212 63.1609 68.4124 68.1492 67.449 73.3309C67.181 74.778 66.9796 76.2352 66.8447 77.7027C66.8105 78.0728 67.3888 78.0705 67.4228 77.7027Z" fill="#E6E6E6"/>
<path d="M74.7027 59.784C76.7247 59.784 78.3639 58.1455 78.3639 56.1242C78.3639 54.103 76.7247 52.4644 74.7027 52.4644C72.6807 52.4644 71.0415 54.103 71.0415 56.1242C71.0415 58.1455 72.6807 59.784 74.7027 59.784Z" fill="#E6E6E6"/>
<path d="M66.6933 77.3572C63.8896 72.9835 61.8235 68.1791 60.5775 63.136C60.2314 61.732 59.9501 60.3144 59.7336 58.8831C59.7211 58.8092 59.6804 58.743 59.62 58.6985C59.5596 58.6541 59.4843 58.6348 59.4099 58.6448C59.3356 58.6548 59.2681 58.6932 59.2216 58.752C59.175 58.8108 59.1532 58.8854 59.1606 58.96C59.9523 64.1707 61.5953 69.216 64.024 73.8941C64.7031 75.1998 65.4409 76.4726 66.2375 77.7126C66.4382 78.0255 66.8928 77.6682 66.6933 77.3572Z" fill="#E6E6E6"/>
<path d="M59.1559 59.5271C61.1779 59.5271 62.8171 57.8886 62.8171 55.8673C62.8171 53.8461 61.1779 52.2075 59.1559 52.2075C57.1339 52.2075 55.4947 53.8461 55.4947 55.8673C55.4947 57.8886 57.1339 59.5271 59.1559 59.5271Z" fill="#E6E6E6"/>
<path d="M55.4536 80.5952V73.4046C55.4544 72.6897 55.7388 72.0043 56.2445 71.4988C56.7503 70.9932 57.4359 70.7089 58.1511 70.7081H74.9358C75.651 70.7089 76.3366 70.9932 76.8423 71.4988C77.348 72.0043 77.6325 72.6897 77.6333 73.4046V80.5952C77.6325 81.3102 77.348 81.9955 76.8423 82.5011C76.3366 83.0066 75.651 83.2909 74.9358 83.2917H58.1511C57.4359 83.2909 56.7503 83.0066 56.2445 82.5011C55.7388 81.9955 55.4544 81.3102 55.4536 80.5952Z" fill="#F2F2F2"/>
<path d="M74.3363 34.7548H67.1429C66.4277 34.754 65.7421 34.4697 65.2364 33.9641C64.7307 33.4586 64.4462 32.7732 64.4454 32.0583V2.6965C64.4462 1.98159 64.7307 1.29619 65.2364 0.790675C65.7421 0.285158 66.4277 0.000805688 67.1429 0H74.3363C75.0515 0.000805688 75.7372 0.285158 76.2429 0.790675C76.7486 1.29619 77.0331 1.98159 77.0339 2.6965V32.0583C77.0331 32.7732 76.7486 33.4586 76.2429 33.9641C75.7372 34.4697 75.0515 34.754 74.3363 34.7548Z" fill="#F2F2F2"/>
<path d="M76.7342 5.6926H64.7451V8.08949H76.7342V5.6926Z" fill="#CCCCCC"/>
<path d="M76.7342 24.2685H64.7451V26.6653H76.7342V24.2685Z" fill="#CCCCCC"/>
<path d="M92.3197 34.7548H85.1263C84.4111 34.754 83.7254 34.4697 83.2197 33.9641C82.714 33.4586 82.4295 32.7732 82.4287 32.0583V2.6965C82.4295 1.98159 82.714 1.29619 83.2197 0.790675C83.7254 0.285158 84.4111 0.000805688 85.1263 0H92.3197C93.0349 0.000805688 93.7205 0.285158 94.2263 0.790675C94.732 1.29619 95.0164 1.98159 95.0172 2.6965V32.0583C95.0164 32.7732 94.732 33.4586 94.2263 33.9641C93.7205 34.4697 93.0349 34.754 92.3197 34.7548Z" fill="#F2F2F2"/>
<path d="M94.7176 5.6926H82.7285V8.08948H94.7176V5.6926Z" fill="#CCCCCC"/>
<path d="M94.7176 24.2685H82.7285V26.6653H94.7176V24.2685Z" fill="#CCCCCC"/>
<path d="M110.304 34.7548H103.11C102.395 34.754 101.709 34.4697 101.204 33.9641C100.698 33.4586 100.413 32.7732 100.413 32.0583V2.6965C100.413 1.98159 100.698 1.29619 101.204 0.790675C101.709 0.285158 102.395 0.000805688 103.11 0H110.304C111.019 0.000805688 111.704 0.285158 112.21 0.790675C112.716 1.29619 113 1.98159 113.001 2.6965V32.0583C113 32.7732 112.716 33.4586 112.21 33.9641C111.704 34.4697 111.019 34.754 110.304 34.7548Z" fill="#F2F2F2"/>
<path d="M112.701 5.6926H100.712V8.08948H112.701V5.6926Z" fill="#CCCCCC"/>
<path d="M112.701 24.2685H100.712V26.6653H112.701V24.2685Z" fill="#CCCCCC"/>
<path d="M119.895 83.2917H112.701C111.986 83.2909 111.301 83.0066 110.795 82.5011C110.289 81.9955 110.005 81.3102 110.004 80.5953V51.2334C110.005 50.5185 110.289 49.8331 110.795 49.3276C111.301 48.8221 111.986 48.5377 112.701 48.5369H119.895C120.61 48.5377 121.296 48.8221 121.801 49.3276C122.307 49.8331 122.592 50.5185 122.592 51.2334V80.5953C122.592 81.3102 122.307 81.9955 121.801 82.5011C121.296 83.0066 120.61 83.2909 119.895 83.2917Z" fill="#F2F2F2"/>
<path d="M122.293 54.2295H110.304V56.6264H122.293V54.2295Z" fill="#CCCCCC"/>
<path d="M122.293 72.8054H110.304V75.2023H122.293V72.8054Z" fill="#CCCCCC"/>
<path d="M137.878 83.2917H130.685C129.97 83.2909 129.284 83.0066 128.778 82.5011C128.273 81.9955 127.988 81.3102 127.987 80.5952V51.2334C127.988 50.5185 128.273 49.8331 128.778 49.3276C129.284 48.8221 129.97 48.5377 130.685 48.5369H137.878C138.594 48.5377 139.279 48.8221 139.785 49.3276C140.291 49.8331 140.575 50.5185 140.576 51.2334V80.5952C140.575 81.3102 140.291 81.9955 139.785 82.5011C139.279 83.0066 138.594 83.2909 137.878 83.2917Z" fill="#F2F2F2"/>
<path d="M140.276 54.2295H128.287V56.6264H140.276V54.2295Z" fill="#CCCCCC"/>
<path d="M140.276 72.8054H128.287V75.2023H140.276V72.8054Z" fill="#CCCCCC"/>
<path d="M155.862 83.2917H148.669C147.954 83.2909 147.268 83.0066 146.762 82.5011C146.256 81.9955 145.972 81.3102 145.971 80.5953V51.2334C145.972 50.5185 146.256 49.8331 146.762 49.3276C147.268 48.8221 147.954 48.5377 148.669 48.5369H155.862C156.577 48.5377 157.263 48.8221 157.769 49.3276C158.274 49.8331 158.559 50.5185 158.56 51.2334V80.5953C158.559 81.3102 158.274 81.9955 157.769 82.5011C157.263 83.0066 156.577 83.2909 155.862 83.2917Z" fill="#F2F2F2"/>
<path d="M158.26 54.2295H146.271V56.6264H158.26V54.2295Z" fill="#CCCCCC"/>
<path d="M158.26 72.8054H146.271V75.2023H158.26V72.8054Z" fill="#CCCCCC"/>
<path d="M72.538 131.829H65.3446C64.6294 131.828 63.9437 131.543 63.438 131.038C62.9323 130.532 62.6478 129.847 62.647 129.132V99.7703C62.6478 99.0554 62.9323 98.37 63.438 97.8645C63.9437 97.359 64.6294 97.0746 65.3446 97.0738H72.538C73.2532 97.0746 73.9389 97.359 74.4446 97.8645C74.9503 98.37 75.2347 99.0554 75.2355 99.7703V129.132C75.2347 129.847 74.9503 130.532 74.4446 131.038C73.9389 131.543 73.2532 131.828 72.538 131.829Z" fill="#F2F2F2"/>
<path d="M74.9358 102.766H62.9467V105.163H74.9358V102.766Z" fill="#CCCCCC"/>
<path d="M74.9358 121.342H62.9467V123.739H74.9358V121.342Z" fill="#CCCCCC"/>
<path d="M90.5213 131.829H83.3279C82.6127 131.828 81.9271 131.543 81.4214 131.038C80.9156 130.532 80.6312 129.847 80.6304 129.132V99.7703C80.6312 99.0554 80.9156 98.37 81.4214 97.8645C81.9271 97.359 82.6127 97.0746 83.3279 97.0738H90.5213C91.2365 97.0746 91.9222 97.359 92.4279 97.8645C92.9336 98.37 93.2181 99.0554 93.2189 99.7703V129.132C93.2181 129.847 92.9336 130.532 92.4279 131.038C91.9222 131.543 91.2365 131.828 90.5213 131.829Z" fill="#F2F2F2"/>
<path d="M92.9192 102.766H80.9302V105.163H92.9192V102.766Z" fill="#CCCCCC"/>
<path d="M92.9192 121.342H80.9302V123.739H92.9192V121.342Z" fill="#CCCCCC"/>
<path d="M108.505 131.829H101.312C100.597 131.828 99.9109 131.543 99.4052 131.038C98.8995 130.532 98.615 129.847 98.6142 129.132V99.7703C98.615 99.0554 98.8995 98.37 99.4052 97.8645C99.9109 97.359 100.597 97.0746 101.312 97.0738H108.505C109.22 97.0746 109.906 97.359 110.412 97.8645C110.917 98.37 111.202 99.0554 111.203 99.7703V129.132C111.202 129.847 110.917 130.532 110.412 131.038C109.906 131.543 109.22 131.828 108.505 131.829Z" fill="#F2F2F2"/>
<path d="M110.903 102.766H98.9141V105.163H110.903V102.766Z" fill="#CCCCCC"/>
<path d="M110.903 121.342H98.9141V123.739H110.903V121.342Z" fill="#CCCCCC"/>
<path d="M128.287 34.7548H121.094C120.379 34.754 119.693 34.4697 119.187 33.9641C118.682 33.4586 118.397 32.7732 118.396 32.0583V2.6965C118.397 1.98159 118.682 1.29619 119.187 0.790675C119.693 0.285158 120.379 0.000805688 121.094 0H128.287C129.003 0.000805688 129.688 0.285158 130.194 0.790675C130.7 1.29619 130.984 1.98159 130.985 2.6965V32.0583C130.984 32.7732 130.7 33.4586 130.194 33.9641C129.688 34.4697 129.003 34.754 128.287 34.7548Z" fill="#F2F2F2"/>
<path d="M130.685 5.6926H118.696V8.08949H130.685V5.6926Z" fill="#CCCCCC"/>
<path d="M130.685 24.2685H118.696V26.6653H130.685V24.2685Z" fill="#CCCCCC"/>
<path d="M146.271 34.7548H139.077C138.362 34.754 137.677 34.4697 137.171 33.9641C136.665 33.4586 136.381 32.7732 136.38 32.0583V2.6965C136.381 1.98159 136.665 1.29619 137.171 0.790675C137.677 0.285158 138.362 0.000805688 139.077 0H146.271C146.986 0.000805688 147.672 0.285158 148.177 0.790675C148.683 1.29619 148.968 1.98159 148.968 2.6965V32.0583C148.968 32.7732 148.683 33.4586 148.177 33.9641C147.672 34.4697 146.986 34.754 146.271 34.7548Z" fill="#F2F2F2"/>
<path d="M148.669 5.6926H136.68V8.08948H148.669V5.6926Z" fill="#CCCCCC"/>
<path d="M148.669 24.2685H136.68V26.6653H148.669V24.2685Z" fill="#CCCCCC"/>
<path d="M164.254 34.7548H157.061C156.346 34.754 155.66 34.4697 155.154 33.9641C154.649 33.4586 154.364 32.7732 154.363 32.0583V2.6965C154.364 1.98159 154.649 1.29619 155.154 0.790675C155.66 0.285158 156.346 0.000805688 157.061 0H164.254C164.969 0.000805688 165.655 0.285158 166.161 0.790675C166.667 1.29619 166.951 1.98159 166.952 2.6965V32.0583C166.951 32.7732 166.667 33.4586 166.161 33.9641C165.655 34.4697 164.969 34.754 164.254 34.7548Z" fill="#F2F2F2"/>
<path d="M166.652 5.6926H154.663V8.08949H166.652V5.6926Z" fill="#CCCCCC"/>
<path d="M166.652 24.2685H154.663V26.6653H166.652V24.2685Z" fill="#CCCCCC"/>
<path d="M182.238 34.7548H175.044C174.329 34.754 173.643 34.4697 173.138 33.9641C172.632 33.4586 172.347 32.7732 172.347 32.0583V2.6965C172.347 1.98159 172.632 1.29619 173.138 0.790675C173.643 0.285158 174.329 0.000805688 175.044 0H182.238C182.953 0.000805688 183.638 0.285158 184.144 0.790675C184.65 1.29619 184.934 1.98159 184.935 2.6965V32.0583C184.934 32.7732 184.65 33.4586 184.144 33.9641C183.638 34.4697 182.953 34.754 182.238 34.7548Z" fill="#F2F2F2"/>
<path d="M184.636 5.6926H172.646V8.08948H184.636V5.6926Z" fill="#CCCCCC"/>
<path d="M184.636 24.2685H172.646V26.6653H184.636V24.2685Z" fill="#CCCCCC"/>
<path d="M209.178 35.6537H38.3338C38.1748 35.6537 38.0223 35.5905 37.9099 35.4781C37.7975 35.3658 37.7343 35.2134 37.7343 35.0544C37.7343 34.8955 37.7975 34.7431 37.9099 34.6307C38.0223 34.5183 38.1748 34.4552 38.3338 34.4552H209.178C209.337 34.4552 209.489 34.5183 209.602 34.6307C209.714 34.7431 209.777 34.8955 209.777 35.0544C209.777 35.2134 209.714 35.3658 209.602 35.4781C209.489 35.5905 209.337 35.6537 209.178 35.6537Z" fill="#CCCCCC"/>
<path d="M209.178 84.1906H38.3338C38.1748 84.1906 38.0223 84.1274 37.9099 84.0151C37.7975 83.9027 37.7343 83.7503 37.7343 83.5913C37.7343 83.4324 37.7975 83.28 37.9099 83.1676C38.0223 83.0552 38.1748 82.9921 38.3338 82.9921H209.178C209.337 82.9921 209.489 83.0552 209.602 83.1676C209.714 83.28 209.777 83.4324 209.777 83.5913C209.777 83.7503 209.714 83.9027 209.602 84.0151C209.489 84.1274 209.337 84.1906 209.178 84.1906Z" fill="#CCCCCC"/>
<path d="M209.178 132.727H38.3338C38.1748 132.727 38.0223 132.664 37.9099 132.552C37.7975 132.44 37.7343 132.287 37.7343 132.128C37.7343 131.969 37.7975 131.817 37.9099 131.705C38.0223 131.592 38.1748 131.529 38.3338 131.529H209.178C209.337 131.529 209.489 131.592 209.602 131.705C209.714 131.817 209.777 131.969 209.777 132.128C209.777 132.287 209.714 132.44 209.602 132.552C209.489 132.664 209.337 132.727 209.178 132.727Z" fill="#CCCCCC"/>
<path d="M199.06 226.795C199.06 222.161 181.615 218.405 160.096 218.405C138.576 218.405 121.131 222.161 121.131 226.795C121.131 229.764 128.303 232.371 139.115 233.862V279.826C139.115 280.859 139.526 281.849 140.256 282.58C140.987 283.31 141.978 283.721 143.011 283.721C144.045 283.721 145.036 283.31 145.767 282.58C146.497 281.849 146.908 280.859 146.908 279.826V234.69C151.027 235.009 155.466 235.184 160.096 235.184C164.726 235.184 169.164 235.009 173.284 234.69V279.826C173.284 280.859 173.694 281.849 174.425 282.58C175.156 283.31 176.147 283.721 177.18 283.721C178.214 283.721 179.205 283.31 179.935 282.58C180.666 281.849 181.077 280.859 181.077 279.826V233.862C191.888 232.371 199.06 229.764 199.06 226.795Z" fill="#CCCCCC"/>
<path d="M191.563 276.185H198.912L202.409 247.849H191.562L191.563 276.185Z" fill="#A0616A"/>
<path d="M213.086 283.005L189.989 283.006L189.988 274.086L204.162 274.085C206.528 274.085 208.798 275.025 210.472 276.698C212.146 278.371 213.086 280.639 213.086 283.005L213.086 283.005Z" fill="#2F2E41"/>
<path d="M203.036 272.085L210.047 269.885L204.897 241.803L194.548 245.049L203.036 272.085Z" fill="#A0616A"/>
<path d="M225.614 272.151L203.576 279.064L200.904 270.553L214.427 266.311C216.685 265.603 219.133 265.82 221.231 266.915C223.328 268.011 224.905 269.894 225.614 272.151Z" fill="#2F2E41"/>
<path d="M198.118 259.043L184.674 223.766C181.658 224.474 156.364 230.069 147.893 221.052C144.989 217.962 144.423 213.485 146.21 207.745L151.154 201.534L151.307 201.542C153.177 201.641 197.127 204.103 200.139 217.355C202.68 228.527 207.319 249.357 208.68 255.475C208.818 256.109 208.724 256.771 208.414 257.341C208.104 257.911 207.6 258.351 206.993 258.581L201.587 260.607C201.285 260.721 200.966 260.779 200.644 260.779C200.097 260.779 199.563 260.613 199.112 260.303C198.661 259.993 198.314 259.553 198.118 259.043Z" fill="#2F2E41"/>
<path d="M190.326 263.237L176.882 227.96C173.865 228.668 148.571 234.263 140.1 225.247C137.196 222.156 136.63 217.679 138.417 211.939L143.361 205.729L143.514 205.737C145.384 205.835 189.334 208.298 192.347 221.55C194.887 232.722 199.526 253.551 200.887 259.669C201.025 260.303 200.931 260.966 200.621 261.536C200.311 262.106 199.807 262.546 199.2 262.775L193.794 264.802C193.492 264.915 193.173 264.973 192.851 264.973C192.304 264.973 191.77 264.807 191.319 264.497C190.868 264.187 190.521 263.748 190.326 263.237Z" fill="#2F2E41"/>
<path d="M208.494 178.673C208.295 178.939 208.118 179.22 207.963 179.513L178.398 182.627L174.142 176.794L164.497 182.064L172.856 196.218L209.115 186.977C210.03 187.868 211.194 188.46 212.454 188.674C213.714 188.888 215.008 188.713 216.166 188.173C217.324 187.634 218.29 186.754 218.936 185.652C219.582 184.55 219.877 183.278 219.781 182.004C219.686 180.731 219.205 179.517 218.403 178.523C217.6 177.529 216.514 176.803 215.288 176.442C214.063 176.08 212.757 176.1 211.543 176.499C210.329 176.897 209.266 177.656 208.494 178.673V178.673Z" fill="#A0616A"/>
<path d="M138.227 213.802C137.822 213.51 137.506 213.113 137.314 212.653C137.121 212.193 137.06 211.689 137.136 211.196C138.804 200.205 136.885 184.459 134.982 173.186C134.592 170.899 134.744 168.552 135.424 166.334C136.105 164.115 137.296 162.087 138.902 160.412C140.508 158.737 142.484 157.461 144.672 156.686C146.86 155.911 149.199 155.66 151.502 155.951C153.506 156.216 155.49 156.607 157.444 157.122C160.69 157.939 163.561 159.836 165.586 162.501C167.61 165.165 168.667 168.439 168.583 171.784C168.299 182.662 170.509 196.236 171.472 201.566C171.538 201.932 171.527 202.308 171.441 202.67C171.355 203.032 171.195 203.372 170.972 203.67C170.753 203.964 170.475 204.209 170.155 204.39C169.836 204.571 169.482 204.682 169.116 204.718C158.441 205.807 146.929 211.011 141.017 214.016C140.637 214.212 140.216 214.315 139.789 214.316C139.227 214.314 138.68 214.134 138.227 213.802Z" fill="#8DC63F"/>
<path d="M167.043 185.452C166.713 185.322 166.412 185.129 166.157 184.882C165.903 184.635 165.7 184.341 165.56 184.015L159.607 170.268C159.246 169.437 159.053 168.544 159.038 167.638C159.023 166.733 159.187 165.834 159.52 164.992C159.853 164.15 160.349 163.382 160.979 162.731C161.609 162.081 162.361 161.561 163.192 161.201C164.024 160.842 164.918 160.649 165.823 160.635C166.729 160.621 167.628 160.786 168.47 161.119C169.313 161.453 170.081 161.949 170.731 162.579C171.381 163.21 171.9 163.962 172.259 164.793L178.213 178.541C178.496 179.197 178.507 179.939 178.244 180.604C177.981 181.268 177.465 181.802 176.809 182.087L169.107 185.419C168.782 185.561 168.433 185.637 168.078 185.642C167.724 185.648 167.372 185.583 167.043 185.452H167.043Z" fill="#8DC63F"/>
<path d="M180.319 177.475C180.121 177.741 179.943 178.021 179.789 178.315L150.224 181.429L145.968 175.596L136.322 180.866L144.681 195.02L180.941 185.778C181.855 186.67 183.02 187.262 184.28 187.476C185.539 187.689 186.834 187.515 187.992 186.975C189.15 186.435 190.116 185.556 190.762 184.454C191.407 183.352 191.702 182.08 191.607 180.806C191.512 179.532 191.031 178.318 190.228 177.324C189.426 176.331 188.339 175.605 187.114 175.243C185.889 174.882 184.582 174.901 183.369 175.3C182.155 175.699 181.091 176.457 180.319 177.475V177.475Z" fill="#A0616A"/>
<path d="M138.868 186.051C138.539 185.922 138.238 185.728 137.983 185.481C137.729 185.235 137.526 184.94 137.386 184.614L131.432 170.867C131.072 170.036 130.879 169.143 130.864 168.238C130.849 167.332 131.013 166.433 131.346 165.591C131.679 164.749 132.174 163.981 132.805 163.33C133.435 162.68 134.187 162.16 135.018 161.801C135.849 161.441 136.743 161.249 137.649 161.234C138.555 161.22 139.454 161.385 140.296 161.718C141.138 162.052 141.906 162.548 142.556 163.179C143.206 163.809 143.726 164.561 144.085 165.393L150.039 179.14C150.322 179.797 150.333 180.538 150.07 181.203C149.807 181.868 149.291 182.401 148.635 182.686L140.933 186.018C140.608 186.16 140.258 186.236 139.904 186.242C139.55 186.247 139.198 186.182 138.869 186.051H138.868Z" fill="#8DC63F"/>
<path d="M150.406 151.275C158.538 151.275 165.129 144.685 165.129 136.557C165.129 128.429 158.538 121.84 150.406 121.84C142.275 121.84 135.683 128.429 135.683 136.557C135.683 144.685 142.275 151.275 150.406 151.275Z" fill="#A0616A"/>
<path d="M139.88 146.658C139.816 146.473 139.796 146.277 139.821 146.083C139.846 145.889 139.914 145.704 140.022 145.541C140.129 145.378 140.272 145.241 140.441 145.142C140.609 145.043 140.798 144.984 140.992 144.969C141.391 144.99 141.781 145.093 142.14 145.269C142.498 145.446 142.816 145.693 143.076 145.996C143.609 146.611 144.229 147.143 144.917 147.577C145.629 147.935 146.595 147.884 147.001 147.2C147.383 146.558 147.121 145.697 146.891 144.951C146.303 143.052 145.975 141.083 145.914 139.097C145.847 136.879 146.16 134.565 147.388 132.836C148.973 130.604 151.807 129.757 154.489 129.818C157.171 129.879 159.809 130.707 162.466 131.23C163.383 131.411 164.461 131.503 165.074 130.793C165.727 130.037 165.487 128.814 165.21 127.794C164.49 125.147 163.726 122.41 162.053 120.273C160.245 118.051 157.661 116.597 154.823 116.204C152.099 115.867 149.333 116.18 146.753 117.12C142.551 118.444 138.852 121.019 136.153 124.501C133.371 128.204 132.169 132.858 132.81 137.445C133.435 141.439 135.553 145.048 138.736 147.544L139.88 146.658Z" fill="#2F2E41"/>
<path d="M83.6634 182.089C84.4039 174.116 86.4494 166.319 89.7181 159.009C90.6292 156.974 91.6319 154.985 92.7263 153.04C92.7811 152.938 92.7944 152.819 92.7631 152.708C92.7319 152.597 92.6586 152.502 92.5588 152.444C92.459 152.385 92.3405 152.368 92.2282 152.396C92.1159 152.423 92.0186 152.493 91.9569 152.591C87.9769 159.674 85.1887 167.363 83.7037 175.35C83.2906 177.581 82.9801 179.827 82.7723 182.089C82.7195 182.66 83.6109 182.656 83.6634 182.089Z" fill="#3F3D56"/>
<path d="M94.8842 154.469C98.001 154.469 100.528 151.943 100.528 148.827C100.528 145.712 98.001 143.186 94.8842 143.186C91.7674 143.186 89.2407 145.712 89.2407 148.827C89.2407 151.943 91.7674 154.469 94.8842 154.469Z" fill="#8DC63F"/>
<path d="M84.2407 182.239C84.7211 177.067 86.0481 172.008 88.1687 167.266C88.7597 165.946 89.4102 164.655 90.1202 163.394C90.1558 163.328 90.1644 163.25 90.1441 163.178C90.1238 163.106 90.0763 163.044 90.0116 163.007C89.9468 162.969 89.8699 162.958 89.7971 162.975C89.7242 162.993 89.6611 163.038 89.621 163.102C87.0391 167.697 85.2302 172.685 84.2668 177.867C83.9989 179.314 83.7974 180.771 83.6626 182.239C83.6283 182.609 84.2066 182.607 84.2407 182.239Z" fill="#3F3D56"/>
<path d="M91.5201 164.32C93.5421 164.32 95.1813 162.682 95.1813 160.66C95.1813 158.639 93.5421 157.001 91.5201 157.001C89.4981 157.001 87.8589 158.639 87.8589 160.66C87.8589 162.682 89.4981 164.32 91.5201 164.32Z" fill="#8DC63F"/>
<path d="M83.5107 181.893C80.7069 177.52 78.6408 172.715 77.3948 167.672C77.0488 166.268 76.7675 164.851 76.551 163.419C76.5385 163.345 76.4977 163.279 76.4373 163.235C76.377 163.19 76.3016 163.171 76.2273 163.181C76.153 163.191 76.0854 163.229 76.0389 163.288C75.9924 163.347 75.9706 163.422 75.978 163.496C76.7696 168.707 78.4127 173.752 80.8414 178.43C81.5204 179.736 82.2583 181.009 83.0549 182.249C83.2556 182.562 83.7101 182.204 83.5107 181.893Z" fill="#3F3D56"/>
<path d="M75.9736 164.063C77.9956 164.063 79.6348 162.425 79.6348 160.404C79.6348 158.382 77.9956 156.744 75.9736 156.744C73.9515 156.744 72.3124 158.382 72.3124 160.404C72.3124 162.425 73.9515 164.063 75.9736 164.063Z" fill="#8DC63F"/>
<path d="M72.2715 185.132V177.941C72.2723 177.226 72.5568 176.541 73.0625 176.035C73.5682 175.53 74.2538 175.245 74.969 175.244H91.7537C92.4689 175.245 93.1546 175.53 93.6603 176.035C94.166 176.541 94.4504 177.226 94.4512 177.941V185.132C94.4504 185.846 94.166 186.532 93.6603 187.037C93.1546 187.543 92.4689 187.827 91.7537 187.828H74.969C74.2538 187.827 73.5682 187.543 73.0625 187.037C72.5568 186.532 72.2723 185.846 72.2715 185.132Z" fill="#CCCCCC"/>
<path d="M222.739 183.051H175.382C174.224 183.051 173.284 183.99 173.284 185.149C173.284 186.307 174.224 187.246 175.382 187.246H222.739C223.898 187.246 224.837 186.307 224.837 185.149C224.837 183.99 223.898 183.051 222.739 183.051Z" fill="#CCCCCC"/>
<path d="M254.509 187.246H201.158C200.125 187.245 199.135 186.834 198.404 186.104C197.674 185.374 197.263 184.384 197.262 183.351V153.989C197.263 152.957 197.674 151.967 198.404 151.236C199.135 150.506 200.125 150.095 201.158 150.094H254.509C255.543 150.095 256.533 150.506 257.263 151.236C257.994 151.967 258.405 152.957 258.406 153.989V183.351C258.405 184.384 257.994 185.374 257.263 186.104C256.533 186.834 255.543 187.245 254.509 187.246Z" fill="#CCCCCC"/>
<path d="M227.834 172.265C229.82 172.265 231.431 170.656 231.431 168.67C231.431 166.684 229.82 165.075 227.834 165.075C225.848 165.075 224.237 166.684 224.237 168.67C224.237 170.656 225.848 172.265 227.834 172.265Z" fill="white"/>
<path d="M390.286 226.795C390.286 222.161 372.841 218.405 351.321 218.405C329.802 218.405 312.357 222.161 312.357 226.795C312.357 229.764 319.529 232.371 330.341 233.862V279.826C330.341 280.859 330.751 281.849 331.482 282.58C332.212 283.31 333.204 283.721 334.237 283.721C335.27 283.721 336.261 283.31 336.992 282.58C337.723 281.849 338.133 280.859 338.133 279.826V234.69C342.253 235.009 346.692 235.184 351.321 235.184C355.951 235.184 360.39 235.009 364.509 234.69V279.826C364.509 280.859 364.92 281.849 365.651 282.58C366.381 283.31 367.372 283.721 368.406 283.721C369.439 283.721 370.43 283.31 371.161 282.58C371.892 281.849 372.302 280.859 372.302 279.826V233.862C383.114 232.371 390.286 229.764 390.286 226.795Z" fill="#CCCCCC"/>
<path d="M355.63 150.009C364.9 150.009 372.415 142.497 372.415 133.231C372.415 123.964 364.9 116.452 355.63 116.452C346.36 116.452 338.845 123.964 338.845 133.231C338.845 142.497 346.36 150.009 355.63 150.009Z" fill="#2F2E41"/>
<path d="M313.86 276.784H306.511L303.015 248.448H313.861L313.86 276.784Z" fill="#FFB8B8"/>
<path d="M301.261 274.684H315.434V283.605H292.337C292.337 282.434 292.568 281.274 293.016 280.191C293.465 279.109 294.122 278.126 294.951 277.297C295.779 276.469 296.763 275.812 297.846 275.364C298.929 274.915 300.089 274.684 301.261 274.684Z" fill="#2F2E41"/>
<path d="M302.387 272.684L295.375 270.484L300.526 242.402L310.875 245.648L302.387 272.684Z" fill="#FFB8B8"/>
<path d="M290.996 266.91L304.519 271.152L301.847 279.664L279.809 272.751C280.16 271.633 280.728 270.595 281.48 269.697C282.232 268.798 283.154 268.057 284.193 267.514C285.231 266.972 286.367 266.64 287.534 266.536C288.702 266.432 289.878 266.56 290.996 266.91Z" fill="#2F2E41"/>
<path d="M304.778 261.378C304.457 261.378 304.137 261.32 303.836 261.207L298.429 259.18C297.822 258.95 297.318 258.51 297.009 257.94C296.699 257.37 296.605 256.708 296.743 256.074C298.104 249.956 302.743 229.127 305.283 217.954C308.296 204.702 352.246 202.24 354.115 202.142L354.269 202.133L359.213 208.344C361 214.084 360.433 218.561 357.53 221.651C349.058 230.668 323.764 225.073 320.748 224.365L307.304 259.642C307.108 260.153 306.762 260.592 306.311 260.902C305.86 261.212 305.326 261.378 304.778 261.378Z" fill="#2F2E41"/>
<path d="M312.571 265.573C312.25 265.572 311.93 265.514 311.629 265.401L306.222 263.375C305.615 263.145 305.111 262.705 304.802 262.135C304.492 261.565 304.398 260.902 304.536 260.268C305.897 254.15 310.536 233.321 313.076 222.149C316.089 208.897 360.039 206.435 361.908 206.336L362.062 206.328L367.006 212.539C368.793 218.279 368.226 222.756 365.323 225.846C356.851 234.862 331.558 229.268 328.541 228.559L315.097 263.836C314.901 264.347 314.555 264.786 314.104 265.096C313.653 265.406 313.119 265.572 312.571 265.573Z" fill="#2F2E41"/>
<path d="M296.929 179.273C297.127 179.538 297.305 179.819 297.459 180.113L327.024 183.226L331.28 177.393L340.926 182.663L332.567 196.818L296.307 187.576C295.393 188.468 294.228 189.06 292.968 189.273C291.709 189.487 290.414 189.313 289.256 188.773C288.098 188.233 287.132 187.354 286.486 186.252C285.841 185.15 285.546 183.877 285.641 182.604C285.736 181.33 286.217 180.116 287.02 179.122C287.822 178.128 288.909 177.402 290.134 177.041C291.359 176.679 292.666 176.699 293.879 177.098C295.093 177.496 296.157 178.255 296.929 179.273Z" fill="#FFB8B8"/>
<path d="M365.634 214.915C365.206 214.914 364.785 214.811 364.405 214.615C358.493 211.61 346.981 206.406 336.306 205.317C335.941 205.282 335.587 205.17 335.267 204.989C334.948 204.809 334.67 204.563 334.451 204.269C334.227 203.971 334.067 203.631 333.981 203.269C333.896 202.907 333.885 202.531 333.951 202.165C334.914 196.835 337.124 183.262 336.839 172.383C336.755 169.038 337.812 165.764 339.837 163.1C341.861 160.435 344.732 158.539 347.978 157.721C349.932 157.206 351.917 156.815 353.92 156.551C356.223 156.259 358.562 156.511 360.75 157.285C362.938 158.06 364.915 159.336 366.52 161.011C368.126 162.687 369.317 164.715 369.998 166.933C370.679 169.151 370.831 171.498 370.441 173.785C368.537 185.059 366.618 200.804 368.286 211.795C368.363 212.288 368.301 212.792 368.109 213.252C367.917 213.712 367.601 214.11 367.196 214.401C366.743 214.734 366.196 214.914 365.634 214.915Z" fill="#8DC63F"/>
<path d="M337.387 186.242C337.018 186.241 336.654 186.165 336.316 186.018L328.614 182.686C327.958 182.401 327.442 181.868 327.179 181.203C326.916 180.538 326.927 179.797 327.21 179.14L333.164 165.393C333.523 164.561 334.042 163.809 334.692 163.179C335.342 162.548 336.11 162.052 336.952 161.718C337.794 161.385 338.694 161.22 339.6 161.234C340.505 161.249 341.399 161.441 342.231 161.801C343.062 162.16 343.814 162.68 344.444 163.33C345.074 163.981 345.57 164.749 345.903 165.591C346.236 166.433 346.4 167.332 346.385 168.238C346.37 169.143 346.177 170.036 345.816 170.867L339.863 184.614C339.654 185.097 339.308 185.508 338.868 185.797C338.428 186.087 337.913 186.241 337.387 186.242Z" fill="#8DC63F"/>
<path d="M355.016 151.874C363.147 151.874 369.739 145.285 369.739 137.156C369.739 129.028 363.147 122.439 355.016 122.439C346.885 122.439 340.293 129.028 340.293 137.156C340.293 145.285 346.885 151.874 355.016 151.874Z" fill="#FFB8B8"/>
<path d="M340.028 129.925C347.002 134.181 354.864 136.771 363.003 137.493L360.581 134.592C362.345 135.244 364.2 135.612 366.079 135.683C367.955 135.654 369.921 134.932 370.986 133.387C371.461 132.619 371.743 131.748 371.809 130.848C371.874 129.947 371.72 129.044 371.361 128.216C370.623 126.564 369.474 125.128 368.024 124.045C365.454 122.013 362.421 120.648 359.194 120.071C355.968 119.495 352.65 119.726 349.534 120.742C347.397 121.381 345.484 122.608 344.012 124.283C342.616 126.004 339.929 127.538 340.644 129.635L340.028 129.925Z" fill="#2F2E41"/>
<path d="M357.492 118.048C352.848 113.341 347.229 109.709 341.029 107.407C337.049 105.933 332.718 105.022 328.557 105.859C324.397 106.696 320.462 109.573 319.301 113.654C318.352 116.991 319.332 120.583 320.805 123.724C322.278 126.865 324.245 129.778 325.436 133.036C326.651 136.36 327.017 139.936 326.499 143.437C325.982 146.939 324.598 150.256 322.472 153.087C320.347 155.918 317.548 158.173 314.33 159.649C311.111 161.125 307.575 161.773 304.042 161.536C308.13 162.084 311.898 164.004 315.894 165.027C319.889 166.049 324.605 165.979 327.575 163.118C330.716 160.09 330.779 155.168 330.627 150.808L329.95 131.367C329.835 128.062 329.737 124.651 330.929 121.566C332.121 118.481 334.955 115.78 338.263 115.808C340.77 115.83 342.989 117.348 345 118.845C347.011 120.342 349.139 121.94 351.636 122.163C354.134 122.385 356.985 120.538 356.798 118.039" fill="#2F2E41"/>
<path d="M289.054 168.433L322.955 169.233L327.866 205.46L296.559 206.162L289.054 168.433Z" fill="#E6E6E6"/>
<path d="M325.103 178.074C325.302 178.34 325.479 178.621 325.633 178.914L355.199 182.028L359.454 176.195L369.1 181.465L360.741 195.619L324.482 186.378C323.567 187.269 322.402 187.861 321.143 188.075C319.883 188.289 318.588 188.114 317.43 187.574C316.272 187.035 315.306 186.155 314.661 185.053C314.015 183.951 313.72 182.679 313.815 181.405C313.911 180.132 314.392 178.917 315.194 177.924C315.997 176.93 317.083 176.204 318.308 175.842C319.533 175.481 320.84 175.501 322.054 175.899C323.267 176.298 324.331 177.057 325.103 178.074V178.074Z" fill="#FFB8B8"/>
<path d="M365.561 186.841C365.192 186.841 364.828 186.764 364.49 186.618L356.788 183.285C356.132 183 355.616 182.467 355.353 181.802C355.089 181.138 355.101 180.396 355.384 179.739L361.337 165.992C361.697 165.161 362.216 164.408 362.866 163.778C363.516 163.147 364.284 162.651 365.126 162.318C365.968 161.984 366.868 161.82 367.774 161.834C368.679 161.848 369.573 162.04 370.404 162.4C371.236 162.759 371.988 163.279 372.618 163.93C373.248 164.58 373.744 165.348 374.077 166.19C374.41 167.032 374.574 167.931 374.559 168.837C374.544 169.742 374.351 170.636 373.99 171.466L368.037 185.214C367.827 185.696 367.481 186.108 367.042 186.397C366.602 186.686 366.087 186.84 365.561 186.841Z" fill="#8DC63F"/>
<path d="M295.872 186.647H57.2895C56.2561 186.647 55.265 187.057 54.5343 187.788C53.8036 188.518 53.3931 189.509 53.3931 190.542C53.3931 191.575 53.8036 192.565 54.5343 193.296C55.265 194.026 56.2561 194.437 57.2895 194.437H64.1832V279.226C64.1832 280.259 64.5937 281.25 65.3245 281.981C66.0552 282.711 67.0463 283.121 68.0797 283.121C69.1131 283.121 70.1041 282.711 70.8349 281.981C71.5656 281.25 71.9761 280.259 71.9761 279.226V201.921L115.659 281.065C116.177 281.957 117.028 282.608 118.025 282.874C119.022 283.14 120.084 283 120.978 282.484C121.871 281.968 122.524 281.119 122.792 280.122C123.06 279.126 122.922 278.064 122.408 277.17L76.7439 194.437H285.381V194.487L239.746 277.17C239.229 278.064 239.089 279.128 239.356 280.125C239.624 281.123 240.277 281.974 241.172 282.49C242.067 283.007 243.13 283.147 244.128 282.879C245.126 282.612 245.977 281.959 246.494 281.065L285.381 210.61V279.226C285.381 280.259 285.792 281.25 286.523 281.981C287.253 282.711 288.244 283.121 289.278 283.121C290.311 283.121 291.302 282.711 292.033 281.981C292.764 281.25 293.174 280.259 293.174 279.226V196.49L294.308 194.437H295.872C296.905 194.437 297.896 194.026 298.627 193.296C299.358 192.565 299.768 191.575 299.768 190.542C299.768 189.509 299.358 188.518 298.627 187.788C297.896 187.057 296.905 186.647 295.872 186.647Z" fill="#3F3D56"/>
<path d="M443.286 284H0.713648C0.524706 283.999 0.343693 283.924 0.210284 283.79C0.0768742 283.657 0.00195312 283.475 0.00195312 283.286C0.00195312 283.098 0.0768742 282.916 0.210284 282.783C0.343693 282.649 0.524706 282.574 0.713648 282.573H443.286C443.475 282.573 443.657 282.648 443.791 282.782C443.925 282.916 444 283.097 444 283.286C444 283.476 443.925 283.657 443.791 283.791C443.657 283.925 443.475 284 443.286 284Z" fill="#3F3D56"/>
</svg>
