<svg width="50" height="44" viewBox="0 0 50 44" fill="none" xmlns="http://www.w3.org/2000/svg">
<path d="M11.7794 3.55405C11.3726 3.75337 11.0944 4.04522 10.9017 4.47233C10.7732 4.74283 10.7661 5.38349 10.7661 19.4567C10.7661 29.3656 10.7875 34.2417 10.8375 34.4197C10.9588 34.8468 11.3298 35.2668 11.8008 35.5088L12.2218 35.7224H22.747C34.207 35.7224 33.6504 35.7437 34.8849 35.3166C36.997 34.5905 38.6668 32.7753 39.2448 30.5971C39.4589 29.7856 39.5088 28.4259 39.3518 27.65C38.9023 25.4575 37.575 23.7064 35.627 22.7383C34.9848 22.418 34.1784 22.1688 33.6218 22.1119L33.2436 22.0692V13.5484C33.2436 4.00251 33.2722 4.55775 32.737 3.97404C32.5729 3.8032 32.3089 3.59676 32.1447 3.51134C31.845 3.36897 31.7737 3.36897 21.9977 3.36897H12.1504L11.7794 3.55405ZM31.6238 4.66453C31.9664 4.84249 31.9521 4.46521 31.9592 13.5199V22.0692L31.5168 22.119C31.2742 22.1403 30.7604 22.2685 30.3751 22.4037C28.6696 22.9874 27.2211 24.2688 26.429 25.8989C25.9081 26.9595 25.7868 27.5504 25.794 28.8886C25.794 29.8283 25.8225 30.1273 25.9509 30.5971C26.3363 31.9994 27.2354 33.359 28.3557 34.2488L28.6411 34.4766H20.5278H12.4145L12.2147 34.3058L12.0149 34.1349V19.5279V4.92079L12.2147 4.74995L12.4145 4.57911H21.9407C29.0478 4.57911 31.5097 4.60046 31.6238 4.66453ZM33.8716 23.4074C35.5342 23.7989 37.0327 25.0233 37.7106 26.5538C38.0603 27.3439 38.1958 27.9775 38.1887 28.853C38.1887 29.8069 38.0674 30.3978 37.7035 31.1808C37.1183 32.4479 36.2264 33.3377 34.9348 33.9427C31.8094 35.4163 28.0845 33.6651 27.164 30.2839C26.9357 29.451 26.9571 28.1697 27.2068 27.3368C27.4209 26.625 27.5779 26.2904 27.9775 25.6996C28.7267 24.5962 29.9898 23.7278 31.3027 23.4074C31.8522 23.2793 33.3079 23.2722 33.8716 23.4074Z" fill="black"/>
<path d="M13.8631 5.99569C13.7418 6.06687 13.5634 6.23772 13.4706 6.37297L13.2994 6.60788L13.2851 9.81118L13.2637 13.0145L13.4278 13.2992C13.5134 13.4558 13.7132 13.6552 13.8702 13.7406L14.1556 13.9043H21.9479C27.2925 13.9043 29.8043 13.8829 29.9399 13.826C30.2253 13.7192 30.4608 13.4843 30.6106 13.1569C30.7319 12.8935 30.7462 12.6372 30.7462 9.91084C30.7462 6.75737 30.7319 6.62923 30.3965 6.26619C30.0041 5.83197 30.525 5.86044 21.955 5.86044C14.3554 5.86044 14.0771 5.86756 13.8631 5.99569ZM29.4618 9.88237V12.6942H21.9693H14.4767V9.88237V7.07058H21.9693H29.4618V9.88237Z" fill="black"/>
<path d="M15.9396 7.88914C15.8183 8.00303 15.7612 8.13828 15.7612 8.31624C15.7612 8.72912 16.011 8.92131 16.539 8.92131H16.9672L16.9886 10.3165L17.01 11.7117L17.2098 11.8826C17.4667 12.1033 17.7664 12.1033 18.0233 11.8826L18.2231 11.7117L18.2445 10.3165L18.2659 8.92131H18.694C19.2221 8.92131 19.4718 8.72912 19.4718 8.31624C19.4718 8.13828 19.4147 8.00303 19.2934 7.88914C19.1222 7.71118 19.1222 7.71118 17.6165 7.71118C16.1109 7.71118 16.1109 7.71118 15.9396 7.88914Z" fill="black"/>
<path d="M20.4135 7.76103C20.1566 7.86069 20.1138 8.15966 20.1138 9.91792V11.6406L20.3207 11.847C20.8202 12.3453 21.3982 11.9324 21.3982 11.0711V10.8433H22.0047H22.6113V11.242C22.6113 11.5836 22.6398 11.6619 22.8182 11.847C23.2321 12.2599 23.7673 12.0321 23.86 11.3986C23.8886 11.2206 23.8957 10.402 23.8814 9.56912L23.86 8.05289L23.6602 7.88204C23.4604 7.7112 23.4462 7.7112 21.9833 7.71832C21.1699 7.71832 20.4634 7.73968 20.4135 7.76103ZM22.6113 9.24167V9.562H22.0047H21.3982V9.24167V8.92134H22.0047H22.6113V9.24167Z" fill="black"/>
<path d="M24.6877 7.84646C24.5021 8.03154 24.4308 8.3234 24.5164 8.51559C24.5592 8.60102 24.8018 8.93558 25.0659 9.26303C25.3584 9.61895 25.5226 9.88234 25.494 9.93929C25.4655 9.982 25.2585 10.2454 25.0373 10.523C24.8161 10.7935 24.5949 11.0925 24.545 11.185C24.2881 11.6691 24.9017 12.2457 25.387 11.9823C25.4583 11.9467 25.701 11.6833 25.9293 11.4057L26.3503 10.886L26.6357 11.242C27.1852 11.8969 27.3636 12.0535 27.5919 12.0535C28.0272 12.0535 28.3626 11.5481 28.1699 11.185C28.12 11.0925 27.8988 10.7935 27.6775 10.523C27.4563 10.2454 27.2494 9.982 27.2209 9.93929C27.1923 9.88234 27.3564 9.61895 27.649 9.26303C27.9059 8.93558 28.1485 8.60102 28.1842 8.50848C28.3269 8.13832 28.0058 7.71121 27.5848 7.71121C27.3636 7.71121 27.1067 7.93188 26.6072 8.55119L26.3574 8.8644L25.8936 8.30204C25.4583 7.78951 25.4012 7.7468 25.1301 7.72545C24.9017 7.71121 24.7947 7.73968 24.6877 7.84646Z" fill="black"/>
<path d="M14.2269 16.4812C14.0057 16.6022 13.9058 16.7588 13.9058 17.008C13.9058 17.6558 13.9914 17.6771 16.3676 17.6771C18.7224 17.6771 18.8294 17.6487 18.8294 17.0365C18.8294 16.4243 18.7224 16.3958 16.3533 16.3958C15.0546 16.4029 14.3196 16.4243 14.2269 16.4812Z" fill="black"/>
<path d="M14.2269 18.9655C13.9914 19.0937 13.9058 19.2574 13.9058 19.5421C13.9058 19.8411 14.077 20.0689 14.3482 20.133C14.4409 20.1543 17.9446 20.1614 22.1333 20.1543L29.7613 20.133L29.9326 19.9336C30.1538 19.6774 30.1538 19.3784 29.9326 19.1221L29.7613 18.9228L22.0619 18.9086C16.5674 18.8943 14.3268 18.9157 14.2269 18.9655Z" fill="black"/>
<path d="M14.2269 21.4641C14.0057 21.5851 13.9058 21.7417 13.9058 21.9909C13.9058 22.3183 13.97 22.4394 14.1983 22.5533C14.3696 22.6458 15.0475 22.66 18.544 22.66C23.0966 22.66 23.0038 22.6671 23.1822 22.2329C23.2607 22.0407 23.2607 21.9695 23.1608 21.7631C23.0966 21.6279 22.961 21.4855 22.854 21.4499C22.5899 21.3502 14.4124 21.3573 14.2269 21.4641Z" fill="black"/>
<path d="M14.2269 23.9556C14.0057 24.0766 13.9058 24.2332 13.9058 24.4823C13.9058 24.8098 13.97 24.9308 14.1983 25.0447C14.3696 25.1372 15.0475 25.1515 18.544 25.1515C23.0966 25.1515 23.0038 25.1586 23.1822 24.7244C23.2607 24.5322 23.2607 24.461 23.1608 24.2546C23.0966 24.1193 22.961 23.9769 22.854 23.9413C22.5899 23.8417 14.4124 23.8488 14.2269 23.9556Z" fill="black"/>
<path d="M14.2269 31.4299C14.0057 31.551 13.9058 31.7076 13.9058 31.9567C13.9058 32.2842 13.97 32.4052 14.1983 32.5191C14.3696 32.6116 15.0475 32.6258 18.544 32.6258C23.0966 32.6258 23.0038 32.633 23.1822 32.1987C23.2607 32.0065 23.2607 31.9354 23.1608 31.7289C23.0966 31.5937 22.961 31.4513 22.854 31.4157C22.5899 31.3161 14.4124 31.3232 14.2269 31.4299Z" fill="black"/>
<path d="M31.7094 23.9698C30.6176 24.1905 29.8612 24.5963 29.0549 25.4006C28.5768 25.8847 28.4198 26.1054 28.1487 26.6535C27.5564 27.8921 27.4494 29.1805 27.8561 30.3836C28.3984 31.9994 29.4973 33.0886 31.1457 33.6367C31.5667 33.7719 31.7807 33.8004 32.6014 33.8004C33.422 33.8004 33.636 33.7719 34.057 33.6367C35.7054 33.0886 36.8043 31.9994 37.3466 30.3836C37.7533 29.1805 37.6463 27.8921 37.0469 26.6464C36.4475 25.4078 35.1916 24.3827 33.8501 24.0481C33.2293 23.8915 32.2945 23.8559 31.7094 23.9698ZM33.5219 25.2583C34.792 25.5928 35.8267 26.6037 36.1978 27.8494C36.3405 28.3334 36.3476 29.33 36.2049 29.8426C35.948 30.8107 35.1845 31.7574 34.3068 32.1845C33.8358 32.4194 33.0366 32.6259 32.6014 32.6259C32.1661 32.6259 31.3669 32.4194 30.8959 32.1845C30.0111 31.7574 29.1833 30.7181 28.9693 29.7785C28.8551 29.2944 28.8765 28.2907 29.0049 27.8494C29.3689 26.6179 30.4107 25.6 31.6523 25.2583C32.1161 25.1301 33.0509 25.1301 33.5219 25.2583Z" fill="black"/>
<path d="M32.2375 25.8634C32.1732 25.8989 32.0805 26.0271 32.0377 26.1339C31.9734 26.2833 31.8735 26.3688 31.6737 26.4257C31.317 26.5325 30.9673 26.8243 30.846 27.1233C30.7104 27.4365 30.7176 28.5185 30.846 28.7677C30.9816 29.024 31.3098 29.3229 31.5524 29.4155C31.6666 29.4582 32.0876 29.4938 32.5015 29.4938H33.2436V29.8141V30.1344H32.1732C31.1243 30.1344 31.0886 30.1415 30.9245 30.3124C30.8032 30.4263 30.7461 30.5615 30.7461 30.7395C30.7461 31.1524 30.9958 31.3446 31.5239 31.3446C31.9235 31.3446 31.9592 31.3588 32.002 31.5225C32.0591 31.7574 32.3588 31.9852 32.6014 31.9852C32.844 31.9852 33.1437 31.7574 33.2008 31.5225C33.2293 31.4015 33.2935 31.3446 33.4077 31.3446C33.6717 31.3446 34.1213 31.0385 34.2997 30.7395C34.4424 30.4832 34.4567 30.3765 34.4424 29.7358C34.421 29.0738 34.4067 28.9955 34.2212 28.7606C33.9215 28.3691 33.793 28.3192 32.8511 28.2836L31.9948 28.248L31.9734 27.9419L31.952 27.643H32.9867C33.9928 27.643 34.0214 27.6359 34.2355 27.4579C34.4139 27.3155 34.4567 27.2159 34.4567 27.0023C34.4567 26.6037 34.1498 26.3616 33.6361 26.3616C33.2864 26.3616 33.2579 26.3474 33.1722 26.1481C33.1223 26.0271 33.0224 25.8989 32.951 25.8634C32.794 25.7708 32.3873 25.7779 32.2375 25.8634Z" fill="black"/>
</svg>
